<svg id="Layer_1" xmlns="http://www.w3.org/2000/svg" viewBox="0 0 325.3 167"><style>.st0{fill:#6858a6}.st1{fill:#a3a3a2}</style><path class="st0" d="M293.5 69h-17V54h-32l-15 15h-16l-9 8v-8h-14V54h-56v15h-68l-15-15h-31v66.1l15 14.9 25 15h21v-4l8 4h40l7-9 1 9h26l1-9 9 9h24l1-9 8 9h26l9-9v9h14l12-9v9h16l25-17V84l-15-15zm-233 25h-16v16h16v18h-22l-11-11V61h17v15h16v18zm74 22l-12 12h-56V76h18v34h7V76h18v34h7V76h18v40zm24 12h-18V76h18v52zm0-59h-18v-8h18v8zm40 25h-15v16h15v18h-22l-11-11V61h18v15h15v18zm46 0h-22v16h22v18h-28l-11-11V87l11-11h28v18zm57 34h-17V94h-16v34h-17V61h17v15h22l11 11v41z"/><path class="st1" d="M58.7 39.8V20h15.8l2 2v9.9l-2 2H62.7v5.9h-4zm13.9-9.9v-6h-9.9v6h9.9zm8.9 9.9l-2-2V22l2-2h13.9l2 2v15.8l-2 2H81.5zm11.9-4V24h-9.9v11.9h9.9zm18.9.5l-2.9 3.5h-4l-4.9-5.9V20h4v11.9l3 3.9 2.9-3.9V20h4v11.9l3 3.9 2.9-3.9V20h3.9v13.9l-4.9 5.9h-4l-3-3.5zm15 3.5V20H144v4h-12.8v4H143v4h-11.8v3.9H144v4h-16.7zm33.7 0v-2l-2-2-2-2h-5.9v5.9h-4V20H163l2 2v9.9l-2 2 2 2v4h-4zm0-9.9v-6h-9.9v6h9.9zm7.3 9.9V20h16.8v4h-12.8v4h11.8v4h-11.8v3.9h12.8v4h-16.8zm37.7-2l-2 2h-15.8V20H200l5.9 5.9v11.9zm-4-9.9l-4-4h-5.9v11.9h9.9v-7.9zm18.9 11.9V20h15.8l2 2v5.9l-2 2 2 2v5.9l-2 2h-15.8zm13.9-11.9v-4h-9.9v4h9.9zm0 7.9v-3.9h-9.9v3.9h9.9zm13.6 4v-7.5l-6.9-4.9V20h4v5.7l4.9 3.3 5-3.3V20h3.9v7.4l-6.9 4.9v7.5h-4z"/></svg>